ffmpeg version 3.4.8-0ubuntu0.2 Copyright (c) 2000-2020 the FFmpeg developers
  built with gcc 7 (Ubuntu 7.5.0-3ubuntu1~18.04)
  configuration: --prefix=/usr --extra-version=0ubuntu0.2 --toolchain=hardened --libdir=/usr/lib/x86_64-linux-gnu --incdir=/usr/include/x86_64-linux-gnu --enable-gpl --disable-stripping --enable-avresample --enable-avisynth --enable-gnutls --enable-ladspa --enable-libass --enable-libbluray --enable-libbs2b --enable-libcaca --enable-libcdio --enable-libflite --enable-libfontconfig --enable-libfreetype --enable-libfribidi --enable-libgme --enable-libgsm --enable-libmp3lame --enable-libmysofa --enable-libopenjpeg --enable-libopenmpt --enable-libopus --enable-libpulse --enable-librubberband --enable-librsvg --enable-libshine --enable-libsnappy --enable-libsoxr --enable-libspeex --enable-libssh --enable-libtheora --enable-libtwolame --enable-libvorbis --enable-libvpx --enable-libwavpack --enable-libwebp --enable-libx265 --enable-libxml2 --enable-libxvid --enable-libzmq --enable-libzvbi --enable-omx --enable-openal --enable-opengl --enable-sdl2 --enable-libdc1394 --enable-libdrm --enable-libiec61883 --enable-chromaprint --enable-frei0r --enable-libopencv --enable-libx264 --enable-shared
  libavutil      55. 78.100 / 55. 78.100
  libavcodec     57.107.100 / 57.107.100
  libavformat    57. 83.100 / 57. 83.100
  libavdevice    57. 10.100 / 57. 10.100
  libavfilter     6.107.100 /  6.107.100
  libavresample   3.  7.  0 /  3.  7.  0
  libswscale      4.  8.100 /  4.  8.100
  libswresample   2.  9.100 /  2.  9.100
  libpostproc    54.  7.100 / 54.  7.100
Input #0, mpeg, from '../.././Samples/dvd.mpeg':
  Duration: 00:00:29.06, start: 0.280000, bitrate: 8183 kb/s
    Stream #0:0[0x1e0]: Video: mpeg2video (Main), yuv420p(tv, bt470bg, top first), 720x576 [SAR 16:15 DAR 4:3], 25 fps, 25 tbr, 90k tbn, 50 tbc
    Stream #0:1[0x8a]: Audio: dts (DTS), 48000 Hz, 5.1(side), fltp, 768 kb/s
    Stream #0:2[0x81]: Audio: ac3, 48000 Hz, 5.1(side), fltp, 448 kb/s
    Stream #0:3[0x80]: Audio: ac3, 48000 Hz, 5.1(side), fltp, 448 kb/s
    Stream #0:4[0x20]: Subtitle: dvd_subtitle
Stream mapping:
  Stream #0:0 -> #0:0 (mpeg2video (native) -> h264 (libx264))
  Stream #0:1 -> #0:1 (dts (dca) -> aac (native))
Press [q] to stop, [?] for help
[libx264 @ 0x558307b35900] using SAR=64/45
[libx264 @ 0x558307b35900] using cpu capabilities: MMX2 SSE2Fast SSSE3 SSE4.2 AVX FMA3 BMI2 AVX2
[libx264 @ 0x558307b35900] profile High, level 3.0
[libx264 @ 0x558307b35900] 264 - core 152 r2854 e9a5903 - H.264/MPEG-4 AVC codec - Copyleft 2003-2017 - http://www.videolan.org/x264.html - options: cabac=1 ref=3 deblock=1:0:0 analyse=0x3:0x113 me=hex subme=7 psy=1 psy_rd=1.00:0.00 mixed_ref=1 me_range=16 chroma_me=1 trellis=1 8x8dct=1 cqm=0 deadzone=21,11 fast_pskip=1 chroma_qp_offset=-2 threads=6 lookahead_threads=1 sliced_threads=0 nr=0 decimate=1 interlaced=0 bluray_compat=0 constrained_intra=0 bframes=3 b_pyramid=2 b_adapt=1 b_bias=0 direct=1 weightb=1 open_gop=0 weightp=2 keyint=250 keyint_min=25 scenecut=40 intra_refresh=0 rc_lookahead=40 rc=crf mbtree=1 crf=23.0 qcomp=0.60 qpmin=0 qpmax=69 qpstep=4 ip_ratio=1.40 aq=1:1.00
Output #0, mov, to '/home/aleksandr/Pract/Samples/dvd.mpeg_tc/output_tc1.mov':
  Metadata:
    encoder         : Lavf57.83.100
    Stream #0:0: Video: h264 (libx264) (avc1 / 0x31637661), yuv420p, 720x576 [SAR 64:45 DAR 16:9], q=-1--1, 25 fps, 12800 tbn, 25 tbc
    Metadata:
      encoder         : Lavc57.107.100 libx264
    Side data:
      cpb: bitrate max/min/avg: 0/0/0 buffer size: 0 vbv_delay: -1
    Stream #0:1: Audio: aac (LC) (mp4a / 0x6134706D), 48000 Hz, 5.1(side), fltp, 341 kb/s
    Metadata:
      encoder         : Lavc57.107.100 aac
frame=   81 fps=0.0 q=28.0 size=       0kB time=00:00:02.85 bitrate=   0.1kbits/s dup=15 drop=0 speed= 5.7x    frame=  144 fps=144 q=28.0 size=       0kB time=00:00:05.36 bitrate=   0.1kbits/s dup=15 drop=0 speed=5.36x    frame=  208 fps=134 q=28.0 size=     256kB time=00:00:07.97 bitrate= 263.1kbits/s dup=15 drop=0 speed=5.15x    frame=  268 fps=131 q=28.0 size=     256kB time=00:00:10.51 bitrate= 199.6kbits/s dup=15 drop=0 speed=5.13x    frame=  347 fps=136 q=28.0 size=     512kB time=00:00:13.66 bitrate= 306.9kbits/s dup=15 drop=0 speed=5.36x    frame=  405 fps=132 q=28.0 size=     768kB time=00:00:15.99 bitrate= 393.4kbits/s dup=15 drop=0 speed=5.21x    frame=  458 fps=127 q=28.0 size=    1024kB time=00:00:17.99 bitrate= 466.1kbits/s dup=15 drop=0 speed=5.01x    frame=  514 fps=125 q=28.0 size=    1280kB time=00:00:20.34 bitrate= 515.4kbits/s dup=15 drop=0 speed=4.97x    frame=  568 fps=124 q=28.0 size=    1536kB time=00:00:22.54 bitrate= 558.2kbits/s dup=15 drop=0 speed= 4.9x    frame=  629 fps=123 q=28.0 size=    1792kB time=00:00:24.86 bitrate= 590.3kbits/s dup=15 drop=0 speed=4.87x    frame=  696 fps=124 q=28.0 size=    2048kB time=00:00:27.59 bitrate= 607.9kbits/s dup=15 drop=0 speed=4.92x    [mpeg2video @ 0x55830773b700] ac-tex damaged at 30 21
[mpeg2video @ 0x55830773b700] Warning MVs not available
[mpeg2video @ 0x55830773b700] concealing 675 DC, 675 AC, 675 MV errors in P frame
frame=  733 fps=120 q=-1.0 Lsize=    2454kB time=00:00:29.20 bitrate= 688.6kbits/s dup=15 drop=0 speed=4.79x    
video:1238kB audio:1194kB subtitle:0kB other streams:0kB global headers:0kB muxing overhead: 0.940766%
[libx264 @ 0x558307b35900] frame I:9     Avg QP:15.48  size: 26889
[libx264 @ 0x558307b35900] frame P:209   Avg QP:19.95  size:  3729
[libx264 @ 0x558307b35900] frame B:515   Avg QP:21.89  size:   477
[libx264 @ 0x558307b35900] consecutive B-frames:  4.4%  4.1%  5.3% 86.2%
[libx264 @ 0x558307b35900] mb I  I16..4: 52.5% 38.5%  9.0%
[libx264 @ 0x558307b35900] mb P  I16..4:  4.2%  3.1%  0.3%  P16..4: 21.4%  5.7%  5.1%  0.0%  0.0%    skip:60.1%
[libx264 @ 0x558307b35900] mb B  I16..4:  0.3%  0.1%  0.0%  B16..8: 18.3%  0.5%  0.0%  direct: 0.3%  skip:80.4%  L0:42.7% L1:54.4% BI: 2.9%
[libx264 @ 0x558307b35900] 8x8 transform intra:38.6% inter:77.5%
[libx264 @ 0x558307b35900] coded y,uvDC,uvAC intra: 22.6% 31.2% 7.1% inter: 4.6% 4.3% 0.0%
[libx264 @ 0x558307b35900] i16 v,h,dc,p: 61% 32%  4%  3%
[libx264 @ 0x558307b35900] i8 v,h,dc,ddl,ddr,vr,hd,vl,hu: 12% 15% 54%  2%  3%  3%  3%  3%  5%
[libx264 @ 0x558307b35900] i4 v,h,dc,ddl,ddr,vr,hd,vl,hu: 21% 41% 16%  3%  4%  4%  3%  4%  4%
[libx264 @ 0x558307b35900] i8c dc,h,v,p: 66% 20% 13%  1%
[libx264 @ 0x558307b35900] Weighted P-Frames: Y:19.1% UV:3.8%
[libx264 @ 0x558307b35900] ref P L0: 55.6% 13.5% 23.7%  6.4%  0.7%
[libx264 @ 0x558307b35900] ref B L0: 73.7% 21.1%  5.3%
[libx264 @ 0x558307b35900] ref B L1: 93.0%  7.0%
[libx264 @ 0x558307b35900] kb/s:345.72
[aac @ 0x558307b36800] Qavg: 333.787
	Command being timed: "/usr/bin/ffmpeg -i ../.././Samples/dvd.mpeg -c:v libx264 -f mov /home/aleksandr/Pract/Samples/dvd.mpeg_tc/output_tc1.mov"
	User time (seconds): 19.64
	System time (seconds): 0.13
	Percent of CPU this job got: 320%
	Elapsed (wall clock) time (h:mm:ss or m:ss): 0:06.18
	Average shared text size (kbytes): 0
	Average unshared data size (kbytes): 0
	Average stack size (kbytes): 0
	Average total size (kbytes): 0
	Maximum resident set size (kbytes): 166708
	Average resident set size (kbytes): 0
	Major (requiring I/O) page faults: 2
	Minor (reclaiming a frame) page faults: 28986
	Voluntary context switches: 9338
	Involuntary context switches: 3863
	Swaps: 0
	File system inputs: 38344
	File system outputs: 4928
	Socket messages sent: 0
	Socket messages received: 0
	Signals delivered: 0
	Page size (bytes): 4096
	Exit status: 0
